v -25.93194771 0 25.93194771
vn -0.4082484245 -0.4082482755 0.816496551
v -17.28789902 0 25.93194771
vn 0 -0.7071087956 0.7071047425
v -8.6439991 0 25.93194771
vn 0 -0.7071054578 0.70710814
v 0 0 25.93194771
vn 0 -0.7071067691 0.7071067691
v 8.6439991 0 25.93194771
vn 0 -0.7071081996 0.7071053982
v 17.2878952 0 25.93194771
vn 0 -0.7071046829 0.7071089149
v 25.93194771 0 25.93194771
vn 0.6666666865 -0.6666666865 0.3333333433
v -25.93194771 8.644051552 25.93194771
vn -0.7071090341 0 0.7071045637
v -17.28789902 8.644051552 25.93194771
vn 0 0 1
v -8.6439991 8.644051552 25.93194771
vn 0 0 1
v 0 8.644051552 25.93194771
vn 0 0 1
v 8.6439991 8.644051552 25.93194771
vn 0 0 1
v 17.2878952 8.644051552 25.93194771
vn 0 0 1
v 25.93194771 8.644051552 25.93194771
vn 0.7071046829 0 0.7071089149
v -25.93194771 17.28794861 25.93194771
vn -0.7071055174 0 0.7071080208
v -17.28789902 17.28794861 25.93194771
vn 0 0 1
v -8.6439991 17.28794861 25.93194771
vn 0 0 1
v 0 17.28794861 25.93194771
vn 0 0 1
v 8.6439991 17.28794861 25.93194771
vn 0 0 1
v 17.2878952 17.28794861 25.93194771
vn 0 0 1
v 25.93194771 17.28794861 25.93194771
vn 0.7071081996 0 0.7071053982
v -25.93194771 25.93194771 25.93194771
vn -0.7071068883 0 0.7071066499
v -17.28789902 25.93194771 25.93194771
vn 0 0 1
v -8.6439991 25.93194771 25.93194771
vn 0 0 1
v 0 25.93194771 25.93194771
vn 0 0 1
v 8.6439991 25.93194771 25.93194771
vn 0 0 1
v 17.2878952 25.93194771 25.93194771
vn 0 0 1
v 25.93194771 25.93194771 25.93194771
vn 0.7071067691 0 0.7071067691
v -25.93194771 34.57594681 25.93194771
vn -0.7071083188 0 0.707105279
v -17.28789902 34.57594681 25.93194771
vn 0 0 1
v -8.6439991 34.57594681 25.93194771
vn 0 0 1
v 0 34.57594681 25.93194771
vn 0 0 1
v 8.6439991 34.57594681 25.93194771
vn 0 0 1
v 17.2878952 34.57594681 25.93194771
vn 0 0 1
v 25.93194771 34.57594681 25.93194771
vn 0.7071053982 0 0.7071081996
v -25.93194771 43.21984482 25.93194771
vn -0.7071048021 0 0.707108736
v -17.28789902 43.21984482 25.93194771
vn 0 0 1
v -8.6439991 43.21984482 25.93194771
vn 0 0 1
v 0 43.21984482 25.93194771
vn 0 0 1
v 8.6439991 43.21984482 25.93194771
vn 0 0 1
v 17.2878952 43.21984482 25.93194771
vn 0 0 1
v 25.93194771 43.21984482 25.93194771
vn 0.7071089149 0 0.7071046829
v -25.93194771 51.86389542 25.93194771
vn -0.6666668057 0.6666665673 0.3333332837
v -17.28789902 51.86389542 25.93194771
vn 0 0.7071047425 0.7071087956
v -8.6439991 51.86389542 25.93194771
vn 0 0.70710814 0.7071054578
v 0 51.86389542 25.93194771
vn 0 0.7071067691 0.7071067691
v 8.6439991 51.86389542 25.93194771
vn 0 0.7071053982 0.7071081996
v 17.2878952 51.86389542 25.93194771
vn 0 0.7071089149 0.7071046829
v 25.93194771 51.86389542 25.93194771
vn 0.4082483053 0.4082483053 0.8164966106
v -25.93194771 51.86389542 17.2878952
vn -0.7071068883 0.7071066499 0
v -17.28789902 51.86389542 17.2878952
vn 0 1 0
v -8.6439991 51.86389542 17.2878952
vn 0 1 0
v 0 51.86389542 17.2878952
vn 0 1 0
v 8.6439991 51.86389542 17.2878952
vn 0 1 0
v 17.2878952 51.86389542 17.2878952
vn 0 1 0
v 25.93194771 51.86389542 17.2878952
vn 0.7071067691 0.7071067691 0
v -25.93194771 51.86389542 8.644000053
vn -0.7071068883 0.7071066499 0
v -17.28789902 51.86389542 8.644000053
vn 0 1 0
v -8.6439991 51.86389542 8.644000053
vn 0 1 0
v 0 51.86389542 8.644000053
vn 0 1 0
v 8.6439991 51.86389542 8.644000053
vn 0 1 0
v 17.2878952 51.86389542 8.644000053
vn 0 1 0
v 25.93194771 51.86389542 8.644000053
vn 0.7071067691 0.7071067691 0
v -25.93194771 51.86389542 -2.95545855e-14
vn -0.7071068883 0.7071066499 0
v -17.28789902 51.86389542 -2.95545855e-14
vn 0 1 0
v -8.6439991 51.86389542 -2.95545855e-14
vn 0 1 0
v 0 51.86389542 -2.95545855e-14
vn 0 1 0
v 8.6439991 51.86389542 -2.95545855e-14
vn 0 1 0
v 17.2878952 51.86389542 -2.95545855e-14
vn 0 1 0
v 25.93194771 51.86389542 -2.95545855e-14
vn 0.7071067691 0.7071067691 0
v -25.93194771 51.86389542 -8.644000053
vn -0.7071068883 0.7071066499 0
v -17.28789902 51.86389542 -8.644000053
vn 0 1 0
v -8.6439991 51.86389542 -8.644000053
vn 0 1 0
v 0 51.86389542 -8.644000053
vn 0 1 0
v 8.6439991 51.86389542 -8.644000053
vn 0 1 0
v 17.2878952 51.86389542 -8.644000053
vn 0 1 0
v 25.93194771 51.86389542 -8.644000053
vn 0.7071067691 0.7071067691 0
v -25.93194771 51.86389542 -17.28789711
vn -0.7071068883 0.7071066499 0
v -17.28789902 51.86389542 -17.28789711
vn 0 1 0
v -8.6439991 51.86389542 -17.28789711
vn 0 1 0
v 0 51.86389542 -17.28789711
vn 0 1 0
v 8.6439991 51.86389542 -17.28789711
vn 0 1 0
v 17.2878952 51.86389542 -17.28789711
vn 0 1 0
v 25.93194771 51.86389542 -17.28789711
vn 0.7071067691 0.7071067691 0
v -25.93194771 51.86389542 -25.9319458
vn -0.4082484245 0.4082482755 -0.816496551
v -17.28789902 51.86389542 -25.9319458
vn 0 0.7071087956 -0.7071047425
v -8.6439991 51.86389542 -25.9319458
vn 0 0.7071054578 -0.70710814
v 0 51.86389542 -25.9319458
vn 0 0.7071067691 -0.7071067691
v 8.6439991 51.86389542 -25.9319458
vn 0 0.7071081996 -0.7071053982
v 17.2878952 51.86389542 -25.9319458
vn 0 0.7071046829 -0.7071089149
v 25.93194771 51.86389542 -25.9319458
vn 0.6666666865 0.6666666865 -0.3333333433
v -25.93194771 43.21984482 -25.9319458
vn -0.7071090341 0 -0.7071045637
v -17.28789902 43.21984482 -25.9319458
vn 0 0 -1
v -8.6439991 43.21984482 -25.9319458
vn 0 0 -1
v 0 43.21984482 -25.9319458
vn 0 0 -1
v 8.6439991 43.21984482 -25.9319458
vn 0 0 -1
v 17.2878952 43.21984482 -25.9319458
vn 0 0 -1
v 25.93194771 43.21984482 -25.9319458
vn 0.7071046829 0 -0.7071089149
v -25.93194771 34.57594681 -25.9319458
vn -0.7071055174 0 -0.7071080208
v -17.28789902 34.57594681 -25.9319458
vn 0 0 -1
v -8.6439991 34.57594681 -25.9319458
vn 0 0 -1
v 0 34.57594681 -25.9319458
vn 0 0 -1
v 8.6439991 34.57594681 -25.9319458
vn 0 0 -1
v 17.2878952 34.57594681 -25.9319458
vn 0 0 -1
v 25.93194771 34.57594681 -25.9319458
vn 0.7071081996 0 -0.7071053982
v -25.93194771 25.93194771 -25.9319458
vn -0.7071068883 0 -0.7071066499
v -17.28789902 25.93194771 -25.9319458
vn 0 0 -1
v -8.6439991 25.93194771 -25.9319458
vn 0 0 -1
v 0 25.93194771 -25.9319458
vn 0 0 -1
v 8.6439991 25.93194771 -25.9319458
vn 0 0 -1
v 17.2878952 25.93194771 -25.9319458
vn 0 0 -1
v 25.93194771 25.93194771 -25.9319458
vn 0.7071067691 0 -0.7071067691
v -25.93194771 17.28794861 -25.9319458
vn -0.7071083188 0 -0.707105279
v -17.28789902 17.28794861 -25.9319458
vn 0 0 -1
v -8.6439991 17.28794861 -25.9319458
vn 0 0 -1
v 0 17.28794861 -25.9319458
vn 0 0 -1
v 8.6439991 17.28794861 -25.9319458
vn 0 0 -1
v 17.2878952 17.28794861 -25.9319458
vn 0 0 -1
v 25.93194771 17.28794861 -25.9319458
vn 0.7071053982 0 -0.7071081996
v -25.93194771 8.644051552 -25.9319458
vn -0.7071048021 0 -0.707108736
v -17.28789902 8.644051552 -25.9319458
vn 0 0 -1
v -8.6439991 8.644051552 -25.9319458
vn 0 0 -1
v 0 8.644051552 -25.9319458
vn 0 0 -1
v 8.6439991 8.644051552 -25.9319458
vn 0 0 -1
v 17.2878952 8.644051552 -25.9319458
vn 0 0 -1
v 25.93194771 8.644051552 -25.9319458
vn 0.7071089149 0 -0.7071046829
v -25.93194771 0 -25.9319458
vn -0.6666668057 -0.6666665673 -0.3333332837
v -17.28789902 0 -25.9319458
vn 0 -0.7071047425 -0.7071087956
v -8.6439991 0 -25.9319458
vn 0 -0.70710814 -0.7071054578
v 0 0 -25.9319458
vn 0 -0.7071067691 -0.7071067691
v 8.6439991 0 -25.9319458
vn 0 -0.7071053982 -0.7071081996
v 17.2878952 0 -25.9319458
vn 0 -0.7071089149 -0.7071046829
v 25.93194771 0 -25.9319458
vn 0.4082483053 -0.4082483053 -0.8164966106
v -25.93194771 0 -17.28789711
vn -0.7071068883 -0.7071066499 0
v -17.28789902 0 -17.28789711
vn 0 -1 0
v -8.6439991 0 -17.28789711
vn 0 -1 0
v 0 0 -17.28789711
vn 0 -1 0
v 8.6439991 0 -17.28789711
vn 0 -1 0
v 17.2878952 0 -17.28789711
vn 0 -1 0
v 25.93194771 0 -17.28789711
vn 0.7071067691 -0.7071067691 0
v -25.93194771 0 -8.644000053
vn -0.7071068883 -0.7071066499 0
v -17.28789902 0 -8.644000053
vn 0 -1 0
v -8.6439991 0 -8.644000053
vn 0 -1 0
v 0 0 -8.644000053
vn 0 -1 0
v 8.6439991 0 -8.644000053
vn 0 -1 0
v 17.2878952 0 -8.644000053
vn 0 -1 0
v 25.93194771 0 -8.644000053
vn 0.7071067691 -0.7071067691 0
v -25.93194771 0 -2.95545855e-14
vn -0.7071068883 -0.7071066499 0
v -17.28789902 0 -2.95545855e-14
vn 0 -1 0
v -8.6439991 0 -2.95545855e-14
vn 0 -1 0
v 0 0 -2.95545855e-14
vn 0 -1 0
v 8.6439991 0 -2.95545855e-14
vn 0 -1 0
v 17.2878952 0 -2.95545855e-14
vn 0 -1 0
v 25.93194771 0 -2.95545855e-14
vn 0.7071067691 -0.7071067691 0
v -25.93194771 0 8.644000053
vn -0.7071068883 -0.7071066499 0
v -17.28789902 0 8.644000053
vn 0 -1 0
v -8.6439991 0 8.644000053
vn 0 -1 0
v 0 0 8.644000053
vn 0 -1 0
v 8.6439991 0 8.644000053
vn 0 -1 0
v 17.2878952 0 8.644000053
vn 0 -1 0
v 25.93194771 0 8.644000053
vn 0.7071067691 -0.7071067691 0
v -25.93194771 0 17.2878952
vn -0.7071068883 -0.7071066499 0
v -17.28789902 0 17.2878952
vn 0 -1 0
v -8.6439991 0 17.2878952
vn 0 -1 0
v 0 0 17.2878952
vn 0 -1 0
v 8.6439991 0 17.2878952
vn 0 -1 0
v 17.2878952 0 17.2878952
vn 0 -1 0
v 25.93194771 0 17.2878952
vn 0.7071067691 -0.7071067691 0
v 25.93194771 8.644051552 -17.28789711
vn 1 0 0
v 25.93194771 8.644051552 -8.644000053
vn 1 0 0
v 25.93194771 8.644051552 -2.95545855e-14
vn 1 0 0
v 25.93194771 8.644051552 8.644000053
vn 1 0 0
v 25.93194771 8.644051552 17.2878952
vn 1 0 0
v 25.93194771 17.28794861 -17.28789711
vn 1 0 0
v 25.93194771 17.28794861 -8.644000053
vn 1 0 0
v 25.93194771 17.28794861 -2.95545855e-14
vn 1 0 0
v 25.93194771 17.28794861 8.644000053
vn 1 0 0
v 25.93194771 17.28794861 17.2878952
vn 1 0 0
v 25.93194771 25.93194771 -17.28789711
vn 1 0 0
v 25.93194771 25.93194771 -8.644000053
vn 1 0 0
v 25.93194771 25.93194771 -2.95545855e-14
vn 1 0 0
v 25.93194771 25.93194771 8.644000053
vn 1 0 0
v 25.93194771 25.93194771 17.2878952
vn 1 0 0
v 25.93194771 34.57594681 -17.28789711
vn 1 0 0
v 25.93194771 34.57594681 -8.644000053
vn 1 0 0
v 25.93194771 34.57594681 -2.95545855e-14
vn 1 0 0
v 25.93194771 34.57594681 8.644000053
vn 1 0 0
v 25.93194771 34.57594681 17.2878952
vn 1 0 0
v 25.93194771 43.21984482 -17.28789711
vn 1 0 0
v 25.93194771 43.21984482 -8.644000053
vn 1 0 0
v 25.93194771 43.21984482 -2.95545855e-14
vn 1 0 0
v 25.93194771 43.21984482 8.644000053
vn 1 0 0
v 25.93194771 43.21984482 17.2878952
vn 1 0 0
v -25.93194771 8.644051552 -17.28789711
vn -1 0 0
v -25.93194771 8.644051552 -8.644000053
vn -1 0 0
v -25.93194771 8.644051552 -2.95545855e-14
vn -1 0 0
v -25.93194771 8.644051552 8.644000053
vn -1 0 0
v -25.93194771 8.644051552 17.2878952
vn -1 0 0
v -25.93194771 17.28794861 -17.28789711
vn -1 0 0
v -25.93194771 17.28794861 -8.644000053
vn -1 0 0
v -25.93194771 17.28794861 -2.95545855e-14
vn -1 0 0
v -25.93194771 17.28794861 8.644000053
vn -1 0 0
v -25.93194771 17.28794861 17.2878952
vn -1 0 0
v -25.93194771 25.93194771 -17.28789711
vn -1 0 0
v -25.93194771 25.93194771 -8.644000053
vn -1 0 0
v -25.93194771 25.93194771 -2.95545855e-14
vn -1 0 0
v -25.93194771 25.93194771 8.644000053
vn -1 0 0
v -25.93194771 25.93194771 17.2878952
vn -1 0 0
v -25.93194771 34.57594681 -17.28789711
vn -1 0 0
v -25.93194771 34.57594681 -8.644000053
vn -1 0 0
v -25.93194771 34.57594681 -2.95545855e-14
vn -1 0 0
v -25.93194771 34.57594681 8.644000053
vn -1 0 0
v -25.93194771 34.57594681 17.2878952
vn -1 0 0
v -25.93194771 43.21984482 -17.28789711
vn -1 0 0
v -25.93194771 43.21984482 -8.644000053
vn -1 0 0
v -25.93194771 43.21984482 -2.95545855e-14
vn -1 0 0
v -25.93194771 43.21984482 8.644000053
vn -1 0 0
v -25.93194771 43.21984482 17.2878952
vn -1 0 0
# mm_gid 0
g mmGroup0
f 1//1 2//2 9//9 
f 1//1 9//9 8//8 
f 2//2 3//3 10//10 
f 2//2 10//10 9//9 
f 3//3 4//4 11//11 
f 3//3 11//11 10//10 
f 4//4 5//5 12//12 
f 4//4 12//12 11//11 
f 5//5 6//6 13//13 
f 5//5 13//13 12//12 
f 6//6 7//7 14//14 
f 6//6 14//14 13//13 
f 8//8 9//9 16//16 
f 8//8 16//16 15//15 
f 9//9 10//10 17//17 
f 9//9 17//17 16//16 
f 10//10 11//11 18//18 
f 10//10 18//18 17//17 
f 11//11 12//12 19//19 
f 11//11 19//19 18//18 
f 12//12 13//13 20//20 
f 12//12 20//20 19//19 
f 13//13 14//14 21//21 
f 13//13 21//21 20//20 
f 15//15 16//16 23//23 
f 15//15 23//23 22//22 
f 16//16 17//17 24//24 
f 16//16 24//24 23//23 
f 17//17 18//18 25//25 
f 17//17 25//25 24//24 
f 18//18 19//19 26//26 
f 18//18 26//26 25//25 
f 19//19 20//20 27//27 
f 19//19 27//27 26//26 
f 20//20 21//21 28//28 
f 20//20 28//28 27//27 
f 22//22 23//23 30//30 
f 22//22 30//30 29//29 
f 23//23 24//24 31//31 
f 23//23 31//31 30//30 
f 24//24 25//25 32//32 
f 24//24 32//32 31//31 
f 25//25 26//26 33//33 
f 25//25 33//33 32//32 
f 26//26 27//27 34//34 
f 26//26 34//34 33//33 
f 27//27 28//28 35//35 
f 27//27 35//35 34//34 
f 29//29 30//30 37//37 
f 29//29 37//37 36//36 
f 30//30 31//31 38//38 
f 30//30 38//38 37//37 
f 31//31 32//32 39//39 
f 31//31 39//39 38//38 
f 32//32 33//33 40//40 
f 32//32 40//40 39//39 
f 33//33 34//34 41//41 
f 33//33 41//41 40//40 
f 34//34 35//35 42//42 
f 34//34 42//42 41//41 
f 36//36 37//37 44//44 
f 36//36 44//44 43//43 
f 37//37 38//38 45//45 
f 37//37 45//45 44//44 
f 38//38 39//39 46//46 
f 38//38 46//46 45//45 
f 39//39 40//40 47//47 
f 39//39 47//47 46//46 
f 40//40 41//41 48//48 
f 40//40 48//48 47//47 
f 41//41 42//42 49//49 
f 41//41 49//49 48//48 
f 43//43 44//44 51//51 
f 43//43 51//51 50//50 
f 44//44 45//45 52//52 
f 44//44 52//52 51//51 
f 45//45 46//46 53//53 
f 45//45 53//53 52//52 
f 46//46 47//47 54//54 
f 46//46 54//54 53//53 
f 47//47 48//48 55//55 
f 47//47 55//55 54//54 
f 48//48 49//49 56//56 
f 48//48 56//56 55//55 
f 50//50 51//51 58//58 
f 50//50 58//58 57//57 
f 51//51 52//52 59//59 
f 51//51 59//59 58//58 
f 52//52 53//53 60//60 
f 52//52 60//60 59//59 
f 53//53 54//54 61//61 
f 53//53 61//61 60//60 
f 54//54 55//55 62//62 
f 54//54 62//62 61//61 
f 55//55 56//56 63//63 
f 55//55 63//63 62//62 
f 57//57 58//58 65//65 
f 57//57 65//65 64//64 
f 58//58 59//59 66//66 
f 58//58 66//66 65//65 
f 59//59 60//60 67//67 
f 59//59 67//67 66//66 
f 60//60 61//61 68//68 
f 60//60 68//68 67//67 
f 61//61 62//62 69//69 
f 61//61 69//69 68//68 
f 62//62 63//63 70//70 
f 62//62 70//70 69//69 
f 64//64 65//65 72//72 
f 64//64 72//72 71//71 
f 65//65 66//66 73//73 
f 65//65 73//73 72//72 
f 66//66 67//67 74//74 
f 66//66 74//74 73//73 
f 67//67 68//68 75//75 
f 67//67 75//75 74//74 
f 68//68 69//69 76//76 
f 68//68 76//76 75//75 
f 69//69 70//70 77//77 
f 69//69 77//77 76//76 
f 71//71 72//72 79//79 
f 71//71 79//79 78//78 
f 72//72 73//73 80//80 
f 72//72 80//80 79//79 
f 73//73 74//74 81//81 
f 73//73 81//81 80//80 
f 74//74 75//75 82//82 
f 74//74 82//82 81//81 
f 75//75 76//76 83//83 
f 75//75 83//83 82//82 
f 76//76 77//77 84//84 
f 76//76 84//84 83//83 
f 78//78 79//79 86//86 
f 78//78 86//86 85//85 
f 79//79 80//80 87//87 
f 79//79 87//87 86//86 
f 80//80 81//81 88//88 
f 80//80 88//88 87//87 
f 81//81 82//82 89//89 
f 81//81 89//89 88//88 
f 82//82 83//83 90//90 
f 82//82 90//90 89//89 
f 83//83 84//84 91//91 
f 83//83 91//91 90//90 
f 85//85 86//86 93//93 
f 85//85 93//93 92//92 
f 86//86 87//87 94//94 
f 86//86 94//94 93//93 
f 87//87 88//88 95//95 
f 87//87 95//95 94//94 
f 88//88 89//89 96//96 
f 88//88 96//96 95//95 
f 89//89 90//90 97//97 
f 89//89 97//97 96//96 
f 90//90 91//91 98//98 
f 90//90 98//98 97//97 
f 92//92 93//93 100//100 
f 92//92 100//100 99//99 
f 93//93 94//94 101//101 
f 93//93 101//101 100//100 
f 94//94 95//95 102//102 
f 94//94 102//102 101//101 
f 95//95 96//96 103//103 
f 95//95 103//103 102//102 
f 96//96 97//97 104//104 
f 96//96 104//104 103//103 
f 97//97 98//98 105//105 
f 97//97 105//105 104//104 
f 99//99 100//100 107//107 
f 99//99 107//107 106//106 
f 100//100 101//101 108//108 
f 100//100 108//108 107//107 
f 101//101 102//102 109//109 
f 101//101 109//109 108//108 
f 102//102 103//103 110//110 
f 102//102 110//110 109//109 
f 103//103 104//104 111//111 
f 103//103 111//111 110//110 
f 104//104 105//105 112//112 
f 104//104 112//112 111//111 
f 106//106 107//107 114//114 
f 106//106 114//114 113//113 
f 107//107 108//108 115//115 
f 107//107 115//115 114//114 
f 108//108 109//109 116//116 
f 108//108 116//116 115//115 
f 109//109 110//110 117//117 
f 109//109 117//117 116//116 
f 110//110 111//111 118//118 
f 110//110 118//118 117//117 
f 111//111 112//112 119//119 
f 111//111 119//119 118//118 
f 113//113 114//114 121//121 
f 113//113 121//121 120//120 
f 114//114 115//115 122//122 
f 114//114 122//122 121//121 
f 115//115 116//116 123//123 
f 115//115 123//123 122//122 
f 116//116 117//117 124//124 
f 116//116 124//124 123//123 
f 117//117 118//118 125//125 
f 117//117 125//125 124//124 
f 118//118 119//119 126//126 
f 118//118 126//126 125//125 
f 120//120 121//121 128//128 
f 120//120 128//128 127//127 
f 121//121 122//122 129//129 
f 121//121 129//129 128//128 
f 122//122 123//123 130//130 
f 122//122 130//130 129//129 
f 123//123 124//124 131//131 
f 123//123 131//131 130//130 
f 124//124 125//125 132//132 
f 124//124 132//132 131//131 
f 125//125 126//126 133//133 
f 125//125 133//133 132//132 
f 127//127 128//128 135//135 
f 127//127 135//135 134//134 
f 128//128 129//129 136//136 
f 128//128 136//136 135//135 
f 129//129 130//130 137//137 
f 129//129 137//137 136//136 
f 130//130 131//131 138//138 
f 130//130 138//138 137//137 
f 131//131 132//132 139//139 
f 131//131 139//139 138//138 
f 132//132 133//133 140//140 
f 132//132 140//140 139//139 
f 134//134 135//135 142//142 
f 134//134 142//142 141//141 
f 135//135 136//136 143//143 
f 135//135 143//143 142//142 
f 136//136 137//137 144//144 
f 136//136 144//144 143//143 
f 137//137 138//138 145//145 
f 137//137 145//145 144//144 
f 138//138 139//139 146//146 
f 138//138 146//146 145//145 
f 139//139 140//140 147//147 
f 139//139 147//147 146//146 
f 141//141 142//142 149//149 
f 141//141 149//149 148//148 
f 142//142 143//143 150//150 
f 142//142 150//150 149//149 
f 143//143 144//144 151//151 
f 143//143 151//151 150//150 
f 144//144 145//145 152//152 
f 144//144 152//152 151//151 
f 145//145 146//146 153//153 
f 145//145 153//153 152//152 
f 146//146 147//147 154//154 
f 146//146 154//154 153//153 
f 148//148 149//149 156//156 
f 148//148 156//156 155//155 
f 149//149 150//150 157//157 
f 149//149 157//157 156//156 
f 150//150 151//151 158//158 
f 150//150 158//158 157//157 
f 151//151 152//152 159//159 
f 151//151 159//159 158//158 
f 152//152 153//153 160//160 
f 152//152 160//160 159//159 
f 153//153 154//154 161//161 
f 153//153 161//161 160//160 
f 155//155 156//156 163//163 
f 155//155 163//163 162//162 
f 156//156 157//157 164//164 
f 156//156 164//164 163//163 
f 157//157 158//158 165//165 
f 157//157 165//165 164//164 
f 158//158 159//159 166//166 
f 158//158 166//166 165//165 
f 159//159 160//160 167//167 
f 159//159 167//167 166//166 
f 160//160 161//161 168//168 
f 160//160 168//168 167//167 
f 162//162 163//163 2//2 
f 162//162 2//2 1//1 
f 163//163 164//164 3//3 
f 163//163 3//3 2//2 
f 164//164 165//165 4//4 
f 164//164 4//4 3//3 
f 165//165 166//166 5//5 
f 165//165 5//5 4//4 
f 166//166 167//167 6//6 
f 166//166 6//6 5//5 
f 167//167 168//168 7//7 
f 167//167 7//7 6//6 
f 140//140 133//133 126//126 
f 140//140 126//126 169//169 
f 147//147 140//140 169//169 
f 147//147 169//169 170//170 
f 154//154 147//147 170//170 
f 154//154 170//170 171//171 
f 161//161 154//154 171//171 
f 161//161 171//171 172//172 
f 168//168 161//161 172//172 
f 168//168 172//172 173//173 
f 7//7 168//168 173//173 
f 7//7 173//173 14//14 
f 169//169 126//126 119//119 
f 169//169 119//119 174//174 
f 170//170 169//169 174//174 
f 170//170 174//174 175//175 
f 171//171 170//170 175//175 
f 171//171 175//175 176//176 
f 172//172 171//171 176//176 
f 172//172 176//176 177//177 
f 173//173 172//172 177//177 
f 173//173 177//177 178//178 
f 14//14 173//173 178//178 
f 14//14 178//178 21//21 
f 174//174 119//119 112//112 
f 174//174 112//112 179//179 
f 175//175 174//174 179//179 
f 175//175 179//179 180//180 
f 176//176 175//175 180//180 
f 176//176 180//180 181//181 
f 177//177 176//176 181//181 
f 177//177 181//181 182//182 
f 178//178 177//177 182//182 
f 178//178 182//182 183//183 
f 21//21 178//178 183//183 
f 21//21 183//183 28//28 
f 179//179 112//112 105//105 
f 179//179 105//105 184//184 
f 180//180 179//179 184//184 
f 180//180 184//184 185//185 
f 181//181 180//180 185//185 
f 181//181 185//185 186//186 
f 182//182 181//181 186//186 
f 182//182 186//186 187//187 
f 183//183 182//182 187//187 
f 183//183 187//187 188//188 
f 28//28 183//183 188//188 
f 28//28 188//188 35//35 
f 184//184 105//105 98//98 
f 184//184 98//98 189//189 
f 185//185 184//184 189//189 
f 185//185 189//189 190//190 
f 186//186 185//185 190//190 
f 186//186 190//190 191//191 
f 187//187 186//186 191//191 
f 187//187 191//191 192//192 
f 188//188 187//187 192//192 
f 188//188 192//192 193//193 
f 35//35 188//188 193//193 
f 35//35 193//193 42//42 
f 189//189 98//98 91//91 
f 189//189 91//91 84//84 
f 190//190 189//189 84//84 
f 190//190 84//84 77//77 
f 191//191 190//190 77//77 
f 191//191 77//77 70//70 
f 192//192 191//191 70//70 
f 192//192 70//70 63//63 
f 193//193 192//192 63//63 
f 193//193 63//63 56//56 
f 42//42 193//193 56//56 
f 42//42 56//56 49//49 
f 127//127 134//134 194//194 
f 127//127 194//194 120//120 
f 134//134 141//141 195//195 
f 134//134 195//195 194//194 
f 141//141 148//148 196//196 
f 141//141 196//196 195//195 
f 148//148 155//155 197//197 
f 148//148 197//197 196//196 
f 155//155 162//162 198//198 
f 155//155 198//198 197//197 
f 162//162 1//1 8//8 
f 162//162 8//8 198//198 
f 120//120 194//194 199//199 
f 120//120 199//199 113//113 
f 194//194 195//195 200//200 
f 194//194 200//200 199//199 
f 195//195 196//196 201//201 
f 195//195 201//201 200//200 
f 196//196 197//197 202//202 
f 196//196 202//202 201//201 
f 197//197 198//198 203//203 
f 197//197 203//203 202//202 
f 198//198 8//8 15//15 
f 198//198 15//15 203//203 
f 113//113 199//199 204//204 
f 113//113 204//204 106//106 
f 199//199 200//200 205//205 
f 199//199 205//205 204//204 
f 200//200 201//201 206//206 
f 200//200 206//206 205//205 
f 201//201 202//202 207//207 
f 201//201 207//207 206//206 
f 202//202 203//203 208//208 
f 202//202 208//208 207//207 
f 203//203 15//15 22//22 
f 203//203 22//22 208//208 
f 106//106 204//204 209//209 
f 106//106 209//209 99//99 
f 204//204 205//205 210//210 
f 204//204 210//210 209//209 
f 205//205 206//206 211//211 
f 205//205 211//211 210//210 
f 206//206 207//207 212//212 
f 206//206 212//212 211//211 
f 207//207 208//208 213//213 
f 207//207 213//213 212//212 
f 208//208 22//22 29//29 
f 208//208 29//29 213//213 
f 99//99 209//209 214//214 
f 99//99 214//214 92//92 
f 209//209 210//210 215//215 
f 209//209 215//215 214//214 
f 210//210 211//211 216//216 
f 210//210 216//216 215//215 
f 211//211 212//212 217//217 
f 211//211 217//217 216//216 
f 212//212 213//213 218//218 
f 212//212 218//218 217//217 
f 213//213 29//29 36//36 
f 213//213 36//36 218//218 
f 92//92 214//214 78//78 
f 92//92 78//78 85//85 
f 214//214 215//215 71//71 
f 214//214 71//71 78//78 
f 215//215 216//216 64//64 
f 215//215 64//64 71//71 
f 216//216 217//217 57//57 
f 216//216 57//57 64//64 
f 217//217 218//218 50//50 
f 217//217 50//50 57//57 
f 218//218 36//36 43//43 
f 218//218 43//43 50//50 
